<svg width="32" height="32" viewBox="0 0 32 32" fill="none" xmlns="http://www.w3.org/2000/svg">
<path d="M16 32C12.0235 31.9039 10.4501 29.2461 9.97013 26.6794C9.7088 25.2838 9.82293 22.9637 9.97013 22.1356C10.208 20.7858 10.592 18.8459 11.0176 16.5948C11.6256 13.3692 13.2405 11.5345 16.7275 10.8802L22.4299 9.79114C22.5813 8.94466 22.8672 6.70288 22.6069 5.32112C22.1216 2.7269 20.1227 0.0411733 16.064 0C7.22453 0 0 7.16042 0 16C0 24.8396 7.16053 32 16 32Z" fill="url(#paint0_linear_117_2550)"/>
<path d="M15.9994 0C19.9749 0.0960853 21.9429 2.75893 22.4229 5.32571C22.6842 6.72119 22.1765 9.03632 22.0293 9.86443C21.7914 11.2142 21.4074 13.1541 20.9818 15.4052C20.3738 18.6308 18.7578 20.4655 15.272 21.1198L9.96529 22.1617C9.81382 23.0082 9.31568 25.2959 9.57595 26.6777C10.0613 29.2719 11.8768 31.9588 15.9354 32C24.7749 32 31.9994 24.8396 31.9994 16C31.9994 7.16043 24.8389 0 15.9994 0Z" fill="url(#paint1_linear_117_2550)"/>
<defs>
<linearGradient id="paint0_linear_117_2550" x1="-7.87695e-07" y1="32" x2="25.1819" y2="1.79352" gradientUnits="userSpaceOnUse">
<stop stop-color="#D2DFFF"/>
<stop offset="1" stop-color="#4E7FFF"/>
</linearGradient>
<linearGradient id="paint1_linear_117_2550" x1="31.9994" y1="-1.63586e-06" x2="6.42288" y2="29.3138" gradientUnits="userSpaceOnUse">
<stop stop-color="#D2DFFF"/>
<stop offset="1" stop-color="#4E7FFF"/>
</linearGradient>
</defs>
</svg>
