<svg width="55" height="65" viewBox="0 0 55 65" fill="none" xmlns="http://www.w3.org/2000/svg">
    <path d="M0 5C0 2.23858 2.23858 0 5 0H38.3307C39.7146 0 41.0366 0.573583 41.982 1.58421L53.6514 14.0583C54.5179 14.9847 55 16.2057 55 17.4741V60C55 62.7614 52.7614 65 50 65H5C2.23857 65 0 62.7614 0 60V5Z" fill="#EEEEEE"/>
    <path d="M55 15.5L40.5 0V15.5H55Z" fill="#D9D9D9"/>
    <path d="M28 51C24.0235 50.9039 22.4501 48.2461 21.9701 45.6794C21.7088 44.2838 21.8229 41.9637 21.9701 41.1356C22.208 39.7858 22.592 37.8459 23.0176 35.5948C23.6256 32.3692 25.2405 30.5345 28.7275 29.8802L34.4299 28.7911C34.5813 27.9447 34.8672 25.7029 34.6069 24.3211C34.1216 21.7269 32.1227 19.0412 28.064 19C19.2245 19 12 26.1604 12 35C12 43.8396 19.1605 51 28 51Z" fill="url(#paint0_linear_533_3)"/>
    <path d="M27.9994 19C31.9749 19.0961 33.9429 21.7589 34.4229 24.3257C34.6842 25.7212 34.1765 28.0363 34.0293 28.8644C33.7914 30.2142 33.4074 32.1541 32.9818 34.4052C32.3738 37.6308 30.7578 39.4655 27.272 40.1198L21.9653 41.1617C21.8138 42.0082 21.3157 44.2959 21.5759 45.6777C22.0613 48.2719 23.8768 50.9588 27.9354 51C36.7749 51 43.9994 43.8396 43.9994 35C43.9994 26.1604 36.8389 19 27.9994 19Z" fill="url(#paint1_linear_533_3)"/>
    <defs>
        <linearGradient id="paint0_linear_533_3" x1="12" y1="51" x2="37.1819" y2="20.7935" gradientUnits="userSpaceOnUse">
            <stop stop-color="#D2DFFF"/>
            <stop offset="1" stop-color="#4E7FFF"/>
        </linearGradient>
        <linearGradient id="paint1_linear_533_3" x1="43.9994" y1="19" x2="18.4229" y2="48.3138" gradientUnits="userSpaceOnUse">
            <stop stop-color="#D2DFFF"/>
            <stop offset="1" stop-color="#4E7FFF"/>
        </linearGradient>
    </defs>
</svg>
